<svg id="Capa_1" data-name="Capa 1" xmlns="http://www.w3.org/2000/svg" viewBox="0 0 55 56"><defs><style>.cls-1{fill:#efb34f;}.cls-2{fill:#fff;}.cls-3{fill:#f1aa33;}</style></defs><title>plan</title><path class="cls-1" d="M44.14,52H8.86A8.36,8.36,0,0,1,.5,43.64V8.36A8.36,8.36,0,0,1,8.86,0H44.14A8.36,8.36,0,0,1,52.5,8.36V43.64A8.36,8.36,0,0,1,44.14,52Z" transform="translate(-0.5)"/><path class="cls-2" d="M44.5,14h-18a1,1,0,0,1,0-2h18a1,1,0,0,1,0,2Z" transform="translate(-0.5)"/><path class="cls-2" d="M44.5,28h-18a1,1,0,0,1,0-2h18a1,1,0,0,1,0,2Z" transform="translate(-0.5)"/><path class="cls-2" d="M44.5,42h-18a1,1,0,0,1,0-2h18a1,1,0,0,1,0,2Z" transform="translate(-0.5)"/><path class="cls-2" d="M12.57,17a1,1,0,0,1-.6-.2L7.4,13.37a1,1,0,1,1,1.2-1.6l3.82,2.87,6.25-7.29a1,1,0,0,1,1.52,1.3l-6.86,8A1,1,0,0,1,12.57,17Z" transform="translate(-0.5)"/><path class="cls-2" d="M12.57,31a1,1,0,0,1-.6-.2L7.4,27.37a1,1,0,1,1,1.2-1.6l3.82,2.87,6.25-7.29a1,1,0,0,1,1.52,1.3l-6.86,8A1,1,0,0,1,12.57,31Z" transform="translate(-0.5)"/><path class="cls-2" d="M12.57,46a1,1,0,0,1-.6-.2L7.4,42.37a1,1,0,1,1,1.2-1.6l3.82,2.87,6.25-7.29a1,1,0,0,1,1.52,1.3l-6.86,8A1,1,0,0,1,12.57,46Z" transform="translate(-0.5)"/><circle class="cls-3" cx="43" cy="44" r="12"/><path class="cls-2" d="M50.07,38.18a1,1,0,0,0-1.39.25l-5.6,8-3.95-3.24a1,1,0,0,0-1.27,1.55l4.79,3.93a1,1,0,0,0,.63.23h.14a1,1,0,0,0,.68-.42l6.21-8.93A1,1,0,0,0,50.07,38.18Z" transform="translate(-0.5)"/><rect class="cls-3" x="35.69" y="36.63" width="14.56" height="13.71"/><path class="cls-2" d="M48.94,50.18H48.1V48.67a4.8,4.8,0,0,0-2.36-4,1,1,0,0,1,0-1.43,4.8,4.8,0,0,0,2.36-4V37.82h.84a.49.49,0,0,0,0-1H39.06a.49.49,0,0,0,0,1h.84v1.51a4.8,4.8,0,0,0,2.36,4,1,1,0,0,1,0,1.43,4.8,4.8,0,0,0-2.36,4v1.51h-.84a.49.49,0,0,0,0,1h9.89a.49.49,0,0,0,0-1Zm-8.06-1.51a3.94,3.94,0,0,1,1.93-3.14,2,2,0,0,0,0-3.07,3.94,3.94,0,0,1-1.93-3.14V37.82h6.23v1.51a3.94,3.94,0,0,1-1.93,3.14,2,2,0,0,0,0,3.07,3.94,3.94,0,0,1,1.93,3.14v1.51H40.88Z" transform="translate(-0.5)"/></svg>
